Pornochic # 22 - Femmes Fatales DVD

Marc Dorcel

Category Feature, Foreign, Marc Dorcel's Pornochic Series 

Starring Aletta Ocean, Jade Laroche, Melissa Lauren, James Brossman, Chloe, J.P.X., Yasmine, Ian Scott, Alex, Cindy Dollar, Leny Ewil, Kristine Crystalis, Claire Castel, Luciano

Paris, city of lights, city of love and beauty, city to meet the most beautiful women, willing to give themselves fully to reach the peaks of pleasure. These Femme Fatales in their chic & sexy lingerie don't just wait for orgasms, they grab their partners cock, stroke it until rock hard and slam it up their asses. Lovers, escorts, models, wives, they all have sex in couples or groups with the same eagerness to conquer their quest for anal and double penetration┬à their quest of unrestrained lust. 

Studio Marc Dorcel 

Discs 1 

Release Date Jan 19, 2012
 
http://bayimg.com/CaNofaAdd
 
http://bayimg.com/CanoIaaDd
 
http://bayimg.com/canolaaDD

General
Complete name                    : C:DownloadsPornochic # 22 - Femmes FatalesdvdPornochic # 22 - Femmes Fatales.avi
Format                           : AVI
Format/Info                      : Audio Video Interleave
File size                        : 889 MiB
Duration                         : 1h 33mn
Overall bit rate                 : 1 334 Kbps
Writing application              : MEncoder SVN-r30881(20100311-gcc4.3.3)
Writing library                  : MPlayer

Video
ID                               : 0
Format                           : MPEG-4 Visual
Format profile                   : Advanced Simple@L5
Format settings, BVOP            : 2
Format settings, QPel            : No
Format settings, GMC             : No warppoints
Format settings, Matrix          : Default (H.263)
Codec ID                         : XVID
Codec ID/Hint                    : XviD
Duration                         : 1h 33mn
Bit rate                         : 1 194 Kbps
Width                            : 720 pixels
Height                           : 480 pixels
Display aspect ratio             : 3:2
Frame rate                       : 25.000 fps
Standard                         : NTSC
Color space                      : YUV
Chroma subsampling               : 4:2:0
Bit depth                        : 8 bits
Scan type                        : Progressive
Compression mode                 : Lossy
Bits/(Pixel*Frame)               : 0.138
Stream size                      : 796 MiB (89%)
Writing library                  : XviD 1.2.1 (UTC 2008-12-04)

Audio
ID                               : 1
Format                           : MPEG Audio
Format version                   : Version 1
Format profile                   : Layer 3
Mode                             : Joint stereo
Codec ID                         : 55
Codec ID/Hint                    : MP3
Duration                         : 1h 33mn
Bit rate mode                    : Constant
Bit rate                         : 128 Kbps
Channel(s)                       : 2 channels
Sampling rate                    : 44.1 KHz
Compression mode                 : Lossy
Delay relative to video          : 40ms
Stream size                      : 85.3 MiB (10%)
Alignment                        : Aligned on interleaves
Interleave, duration             : 26 ms (0.65 video frame)
Interleave, preload duration     : 522 ms
Writing library                  : LAME3.98

